<?xml version="1.0" standalone="no"?><!DOCTYPE svg PUBLIC "-//W3C//DTD SVG 1.1//EN" "http://www.w3.org/Graphics/SVG/1.1/DTD/svg11.dtd"><svg t="1736500007894" class="icon" viewBox="0 0 1024 1024" version="1.1" xmlns="http://www.w3.org/2000/svg" p-id="29877" xmlns:xlink="http://www.w3.org/1999/xlink" width="200" height="200"><path d="M433.65 1010.4c-159.77 0-297.37-57.143-368-152.914C26.68 804.686 4.166 735.657 0.509 658.057c-3.2-68.686 8.8-140.914 33.714-203.428 40.457-101.143 95.2-181.258 243.086-267.886 85.6-50.172 161.6-62.743 235.2-74.972 53.371-8.8 103.886-17.142 156.914-40 9.257-4 18.4-8 27.2-11.771 57.029-24.914 106.286-46.4 153.143-46.4 29.486 0 56.114 8.571 78.972 25.6 40.114 29.829 54.857 73.143 62.514 103.086 25.143 99.2 36 195.657 32 286.514-3.2 73.486-16 143.657-38.057 208.343-29.943 88-72 148.8-93.029 172.114C839.822 874.171 767.708 926.743 683.48 961.6c-77.257 31.886-163.657 48.8-249.828 48.8z" fill="#25467A" p-id="29878"></path><path d="M301.65 228.114c138.515-81.143 253.03-54.971 386.744-112.228 94.285-40.343 160.8-76.115 211.771-38.172 27.429 20.343 38.172 51.2 44.572 76.457 105.371 415.2-89.143 624-89.143 624-189.143 236.343-614.4 236.458-751.315 50.858C33.308 732.8 34.908 582.17 78.794 472.457c36.571-91.314 84.457-163.2 222.857-244.343z" fill="#B58245" p-id="29879"></path><path d="M855.594 778.057C765.537 890.63 621.879 949.714 481.308 960.571c100.114-19.885 180.571-45.6 265.486-178.285C828.965 653.714 861.308 433.6 827.25 274.057 792.508 110.971 873.194 57.6 900.165 77.714c27.429 20.343 38.172 51.2 44.572 76.457 105.371 415.086-89.143 623.886-89.143 623.886z" fill="#A16F35" p-id="29880"></path><path d="M693.308 623.886c44.343 58.285 39.771 156.914 1.6 218.971C622.222 961.143 451.022 951.2 395.479 948.914s-196-24.571-280.685-130.4c-63.772-79.771-60.8-225.371-46.057-282.171 14.742-56.8 57.828-161.714 123.2-186.514 42.628-16.229 75.885 8.8 160.228 9.714C470.908 360.8 571.594 330.4 609.308 378.97s-7.771 118.286 6.629 162.972c13.828 42.857 48.571 44.114 77.371 81.943z" fill="#FFA41F" p-id="29881"></path><path d="M694.908 842.743c-16.914 27.543-39.2 48.114-64 63.428 32.571-45.142 66.629-135.542 36.114-244.342-17.371-62.172-65.714-78.058-85.6-130.515s17.143-98.171-17.943-126.743c-23.085-18.857-64.571-11.2-114.514-7.771-111.314 7.771-170.857-29.829-256.343-15.086-34.4 5.943-52.343 20.686-78.743 45.143 20.458-34.743 46.743-65.143 78.172-77.028 42.628-16.229 75.886 8.8 160.228 9.714C471.022 360.8 571.708 330.4 609.422 378.97c37.829 48.686-7.771 118.286 6.629 162.972 13.714 42.857 48.457 44.114 77.257 81.943 44.229 58.285 39.771 156.914 1.6 218.857z" fill="#EF6C00" p-id="29882"></path><path d="M768.394 499.086c-7.315-10.057 86.4-98.286 96-90.4 5.028 4.114-11.429 35.657-32.686 56.685-24.343 24.115-59.429 39.2-63.314 33.715zM319.822 295.543c17.143 6.4 162.857-88.457 149.372-97.143-7.086-4.571-46.057 4.457-81.029 26.057-39.771 24.686-77.6 67.657-68.343 71.086zM770.565 599.2c-7.314-10.057 86.4-98.286 96-90.4 5.029 4.114-11.428 35.657-32.686 56.686-24.342 24-59.428 39.085-63.314 33.714z" fill="#8A5B24" p-id="29883"></path><path d="M337.08 796.114c-35.315 0-64-28.685-64-64 0-7.085 5.714-12.8 12.8-12.8s12.8 5.715 12.8 12.8c0 21.257 17.142 38.4 38.4 38.4s38.4-17.143 38.4-38.4c0-7.085 5.714-12.8 12.8-12.8s12.8 5.715 12.8 12.8c0 35.315-28.686 64-64 64z m-166.4-166.4c0 21.257 17.142 38.4 38.4 38.4s38.4-17.143 38.4-38.4-17.143-38.4-38.4-38.4c-21.143 0-38.4 17.143-38.4 38.4z m256 0c0 21.257 17.142 38.4 38.4 38.4s38.4-17.143 38.4-38.4-17.143-38.4-38.4-38.4c-21.143 0-38.4 17.143-38.4 38.4z" fill="#25467A" p-id="29884"></path><path d="M157.88 693.714h-51.2c-14.172 0-25.6 11.429-25.6 25.6s11.428 25.6 25.6 25.6h51.2c14.17 0 25.6-11.428 25.6-25.6s-11.43-25.6-25.6-25.6z m409.6 0h-51.2c-14.172 0-25.6 11.429-25.6 25.6s11.428 25.6 25.6 25.6h51.2c14.17 0 25.6-11.428 25.6-25.6s-11.43-25.6-25.6-25.6z" fill="#EF6C00" p-id="29885"></path></svg>