<?xml version="1.0" standalone="no"?><!DOCTYPE svg PUBLIC "-//W3C//DTD SVG 1.1//EN" "http://www.w3.org/Graphics/SVG/1.1/DTD/svg11.dtd"><svg t="1736500225477" class="icon" viewBox="0 0 1024 1024" version="1.1" xmlns="http://www.w3.org/2000/svg" p-id="42703" xmlns:xlink="http://www.w3.org/1999/xlink" width="200" height="200"><path d="M857.131 173.414c-5.851-2.189-12.435-2.963-18.686-3.152-0.451-0.025-0.904-0.04-1.36-0.04H191.236c-5.538 0-10.743 0.4-16.337 1.273-30.286 4.727-52.813 33.656-52.813 63.74v391.459c0 10.407-0.441 20.924 0.097 31.323 1.783 34.479 29.513 60.42 63.5 62.18 5.129 0.266 10.325 0.023 15.458 0.023h187.666l89.792 107.305 15.809 18.894c8.211 9.813 27.145 9.813 35.356 0l95.919-114.627 9.683-11.571h201.558c29.416 0 55.653-20.406 63.122-48.807 1.894-7.202 2.04-14.466 2.04-21.799V502.498 313.825v-68.114-10.279c-0.001-28.836-18.606-52.15-44.955-62.018z m-684.8 57.988c0.111-0.864 0.186-1.265 0 0z m3.581-6.515l-0.095 0.132c-0.162 0.122-0.107 0.055 0.095-0.132z m-0.697 439.627c0.957 1.102 1.45 1.691 1.638 1.934a11.97 11.97 0 0 1-0.141-0.098 23.278 23.278 0 0 1-1.497-1.836z m1.532 1.875c0.044 0.03 0.09 0.063 0.132 0.094 0.132 0.174 0.063 0.118-0.132-0.094z m-0.902-441.391l0.098-0.139a23.232 23.232 0 0 1 1.859-1.518c-1.134 0.986-1.725 1.479-1.957 1.657z m176.24 268.612c-22.092 0-40-17.909-40-40 0-22.092 17.908-40 40-40 22.091 0 40 17.908 40 40 0 22.09-17.909 40-40 40z m160.013 0c-22.092 0-40-17.909-40-40 0-22.092 17.908-40 40-40 22.091 0 40 17.908 40 40 0 22.09-17.909 40-40 40z m159.988 0c-22.092 0-40-17.909-40-40 0-22.092 17.908-40 40-40 22.091 0 40 17.908 40 40 0 22.09-17.909 40-40 40z m167.666 176.459c3.207-0.59 1.658-0.225 0 0z m7.787-3.72l0.119-0.092c-0.393 0.483-0.568 0.666-0.119 0.092z m0.195-0.186l-0.111 0.079c0.223-0.284 0.582-0.73 1.072-1.334-0.314 0.438-0.678 0.904-0.961 1.255z" fill="#F33E1A" p-id="42704"></path></svg>