<?xml version="1.0" standalone="no"?><!DOCTYPE svg PUBLIC "-//W3C//DTD SVG 1.1//EN" "http://www.w3.org/Graphics/SVG/1.1/DTD/svg11.dtd"><svg t="1736504688219" class="icon" viewBox="0 0 1024 1024" version="1.1" xmlns="http://www.w3.org/2000/svg" p-id="52088" xmlns:xlink="http://www.w3.org/1999/xlink" width="200" height="200"><path d="M185.792 243.2a672.896 672.896 0 0 0 32 127.104c-3.072-68.928-6.4-133.248-9.216-194.496l130.176-13.76c1.536 36.736 4.608 72 6.4 107.2a464.064 464.064 0 0 1 58.176-36.736l27.584 45.952c38.4-42.88 75.072-81.152 111.808-116.416l99.52 91.904c-45.952 49.024-93.44 101.056-140.8 153.152 12.224-3.072 24.512-4.608 38.4-7.68a872.64 872.64 0 0 1 188.352-18.368 162.688 162.688 0 0 1 120.96 47.488 165.12 165.12 0 0 1 44.416 113.344v18.368a1010.048 1010.048 0 0 1-18.368 168.448 1031.296 1031.296 0 0 1-44.416 172.8l-145.472-27.584a1428.352 1428.352 0 0 0 47.488-179.2 753.28 753.28 0 0 0 13.76-127.104 33.664 33.664 0 0 0-12.224-27.584 63.488 63.488 0 0 0-38.4-12.224 157.44 157.44 0 0 0-26.048 1.536 3082.816 3082.816 0 0 0-67.392 370.624l-140.8-33.664a3131.264 3131.264 0 0 1 52.16-310.528 238.08 238.08 0 0 0-35.2 12.224L429.632 425.6a281.6 281.6 0 0 1 36.736-10.752l-58.176-52.096c-18.368 13.76-36.736 26.048-56.64 41.344 0 10.752 1.536 22.976 1.536 35.2 19.904-1.536 39.808-1.536 59.712-3.072l15.296 124.032c-22.976 0-45.952 1.536-68.928 3.072 1.536 24.512 3.072 49.024 3.072 72a316.224 316.224 0 0 0 96.192 22.848l-29.12 113.344a281.6 281.6 0 0 1-62.784-7.68l4.608 93.44-131.712 13.76c-3.072-45.952-4.608-91.904-7.68-134.784q-32 39.04-64.32 82.688l-85.76-75.072c42.88-53.632 79.616-99.52 116.416-140.8l33.664 32c-1.536-19.904-3.072-38.4-3.072-56.64a983.808 983.808 0 0 0-101.056 19.904l-15.296-124.032q57.6-11.456 110.272-22.976a140.16 140.16 0 0 0-1.536-26.048l-78.08 22.976a965.824 965.824 0 0 1-49.024-176.128l91.904-29.12z m557.44-120.96a640.32 640.32 0 0 1 199.424 166.912l-99.84 99.584a1935.296 1935.296 0 0 0-197.568-165.376l97.984-101.056z" fill="#F25759" p-id="52089"></path></svg>