<?xml version="1.0" standalone="no"?><!DOCTYPE svg PUBLIC "-//W3C//DTD SVG 1.1//EN" "http://www.w3.org/Graphics/SVG/1.1/DTD/svg11.dtd"><svg t="1736500128725" class="icon" viewBox="0 0 1024 1024" version="1.1" xmlns="http://www.w3.org/2000/svg" p-id="38080" xmlns:xlink="http://www.w3.org/1999/xlink" width="200" height="200"><path d="M787.63 521.59L692.5 705.67c-17.45 33.77-65.74 33.77-83.19 0l-95.13-184.08a46.806 46.806 0 0 1 0-42.99l95.13-184.08c17.45-33.77 65.74-33.77 83.19 0l95.13 184.08a46.806 46.806 0 0 1 0 42.99z" fill="#EFB6D2" p-id="38081"></path><path d="M629.41 636.82l-184.08-95.13c-33.77-17.45-33.77-65.74 0-83.19l184.08-95.13a46.806 46.806 0 0 1 42.99 0l184.08 95.13c33.77 17.45 33.77 65.74 0 83.19L672.4 636.82a46.806 46.806 0 0 1-42.99 0z" fill="#EFB6D2" p-id="38082"></path><path d="M415.16 338.81l-67.32 130.27c-12.35 23.9-46.52 23.9-58.87 0l-67.32-130.27a33.133 33.133 0 0 1 0-30.42l67.32-130.27c12.35-23.9 46.52-23.9 58.87 0l67.32 130.27a33.133 33.133 0 0 1 0 30.42z" fill="#ED6BB0" p-id="38083"></path><path d="M303.19 420.35l-130.27-67.32c-23.9-12.35-23.9-46.52 0-58.87l130.27-67.32a33.133 33.133 0 0 1 30.42 0l130.27 67.32c23.9 12.35 23.9 46.52 0 58.87l-130.27 67.32a33.133 33.133 0 0 1-30.42 0z" fill="#ED6BB0" p-id="38084"></path><path d="M451.14 731.76l-58.26 112.73c-10.69 20.68-40.26 20.68-50.95 0l-58.26-112.73a28.66 28.66 0 0 1 0-26.33l58.26-112.73c10.69-20.68 40.26-20.68 50.95 0l58.26 112.73a28.66 28.66 0 0 1 0 26.33z" fill="#EFB6D2" p-id="38085"></path><path d="M354.24 802.33l-112.73-58.26c-20.68-10.69-20.68-40.26 0-50.95l112.73-58.26a28.66 28.66 0 0 1 26.33 0l112.73 58.26c20.68 10.69 20.68 40.26 0 50.95l-112.73 58.26a28.66 28.66 0 0 1-26.33 0z" fill="#EFB6D2" p-id="38086"></path></svg>