<?xml version="1.0" standalone="no"?><!DOCTYPE svg PUBLIC "-//W3C//DTD SVG 1.1//EN" "http://www.w3.org/Graphics/SVG/1.1/DTD/svg11.dtd"><svg t="1739455715664" class="icon" viewBox="0 0 1813 1024" version="1.1" xmlns="http://www.w3.org/2000/svg" p-id="5150" xmlns:xlink="http://www.w3.org/1999/xlink" width="354.1015625" height="200"><path d="M1214.374281 140.07031v-5.973777c18.082786-0.645814 35.923392-1.372354 53.521817-1.856715a46.337139 46.337139 0 0 0-2.179621 17.436972c4.19779 68.133355 72.654051 125.126421 123.43116 160.161819h2.583255a57.315974 57.315974 0 0 0 7.426859 29.061621 249.445575 249.445575 0 0 1-92.351372-8.072672h-4.843603c-16.145345-15.418804-43.269524-14.207903-64.581379-22.603483-34.631764-13.642816-53.198911-53.360364-53.521818-90.494657 0-25.348191 2.341075-64.581379 26.559092-76.60966a9.3643 9.3643 0 0 1 3.95561-1.049448z" fill="#88A215" p-id="5151"></path><path d="M1214.374281 140.07031v-5.973777l53.521817-2.825436h1.533808l-0.48436 1.533808a45.206965 45.206965 0 0 0-2.018168 13.56209 136.589616 136.589616 0 0 0 1.614534 13.804269c0.726541 4.601423 2.098895 9.041393 3.148342 13.56209s3.067615 8.799213 4.68215 13.158456a186.559458 186.559458 0 0 0 29.949615 46.982953 433.098871 433.098871 0 0 0 84.601606 73.542045l-1.856715-0.484361h5.570144v3.148343a55.701439 55.701439 0 0 0 7.023225 27.447086l2.825435 4.359243-5.16651 0.565087a248.719035 248.719035 0 0 1-93.481546-8.072673h0.887994-6.054504l-0.887994-0.887994a62.966844 62.966844 0 0 0-28.980894-13.239182 283.592979 283.592979 0 0 1-33.097956-8.072673 84.359426 84.359426 0 0 1-46.982953-48.436034 115.116308 115.116308 0 0 1-8.072672-33.178683 177.598791 177.598791 0 0 1 0.565087-34.066677 111.483605 111.483605 0 0 1 8.072672-33.01723 48.436034 48.436034 0 0 1 9.202846-14.207903 35.358305 35.358305 0 0 1 6.538865-5.408691 13.642816 13.642816 0 0 1 7.346132-3.794156z m0 0a13.481363 13.481363 0 0 0-7.588312 3.148342 34.470311 34.470311 0 0 0-6.215958 5.650871 45.852779 45.852779 0 0 0-8.557033 14.28863 107.043635 107.043635 0 0 0-6.538864 32.694323 200.686634 200.686634 0 0 0 0.48436 33.420864 111.806512 111.806512 0 0 0 8.63776 32.290689 80.242363 80.242363 0 0 0 45.045511 45.045512 288.678763 288.678763 0 0 0 32.29069 8.072672 67.245361 67.245361 0 0 1 31.806329 14.53081l-2.179622-0.807267h6.215958a252.109557 252.109557 0 0 0 91.221197 8.072672l-2.341075 4.92433a60.948676 60.948676 0 0 1-8.072672-30.676155l3.229069 2.986889H1388.501823l-0.887994-0.565087a422.03931 422.03931 0 0 1-85.005239-75.39876 191.483788 191.483788 0 0 1-29.545981-48.436034c-1.614534-4.520697-3.148342-9.041393-4.520697-13.642816s-2.341075-9.283573-2.986889-14.04645a139.818685 139.818685 0 0 1-1.130174-14.369356 47.54804 47.54804 0 0 1 2.663982-14.207904l1.049448 1.453081-53.521818 0.807267z" fill="#7A9149" p-id="5152"></path><path d="M1391.569439 309.677156h-2.583255c-35.600485-24.783104-80.726723-60.464316-104.944741-103.330206 2.179622 50.696382 23.733657 95.580441 68.536988 122.866073a21.150402 21.150402 0 0 1 8.960667 10.252294 243.794705 243.794705 0 0 0 37.457199-0.322907 57.315974 57.315974 0 0 1-7.426858-29.465254z" fill="#80990E" p-id="5153"></path><path d="M495.099175 349.879064a54.006178 54.006178 0 0 1 11.624648 10.655928A74.672219 74.672219 0 0 1 508.580538 447.074039a88.799396 88.799396 0 0 1-32.290689 28.33508 104.94474 104.94474 0 0 1-47.225133 11.866829 50.050569 50.050569 0 0 1-18.567147-2.663982 47.709494 47.709494 0 0 1-24.218017-24.218017 87.184861 87.184861 0 0 1-9.767933-40.363362 79.031462 79.031462 0 0 1 13.158455-44.318971 72.654051 72.654051 0 0 1 31.079789-25.186738 2.663982 2.663982 0 0 0 3.471249 0l3.309796-2.502528a60.625769 60.625769 0 0 1 67.568267 1.856714z" fill="#CF7802" p-id="5154"></path><path d="M482.66726 370.545105a43.753884 43.753884 0 0 1 9.041393 8.072673 48.436034 48.436034 0 0 1 2.906162 59.979955 60.141409 60.141409 0 0 1-24.218017 19.051507 83.471432 83.471432 0 0 1-35.761939 7.265405 44.641878 44.641878 0 0 1-14.207903-2.179621 38.18374 38.18374 0 0 1-18.7286-17.033339 58.849781 58.849781 0 0 1-8.072672-28.496533 47.30586 47.30586 0 0 1 32.290689-47.225134 2.341075 2.341075 0 0 0 2.663982 0l2.421802-1.695261a50.454202 50.454202 0 0 1 51.665103 2.260348z" fill="#B36600" p-id="5155"></path><path d="M1638.270305 373.693448a137.23543 137.23543 0 0 1 25.348192-5.166511c-41.009175 35.681212-84.197973 78.062742-137.881244 74.187859-37.94156-2.663982-72.088964-29.142347-110.030524-27.285632-27.527813 1.372354-58.849781 16.629705-80.08091-0.887994-22.764936-18.647873-11.866828-58.526874-31.079788-80.726724a32.290689 32.290689 0 0 0-2.825435-2.906162h4.843603a249.445575 249.445575 0 0 0 92.351372 8.072673c6.377411 9.84866 17.436972 14.28863 35.035397 10.171567a43.027344 43.027344 0 0 0 29.384528-26.155459l5.247237 2.018168a197.215385 197.215385 0 0 0 169.687572 48.678215z" fill="#88A215" p-id="5156"></path><path d="M1638.270305 373.693448a131.019472 131.019472 0 0 1 25.348192-5.247237c-14.127177 12.270462-27.931446 24.944558-42.704437 36.569205a212.553463 212.553463 0 0 1-47.628767 29.788161 125.449328 125.449328 0 0 1-27.124179 8.072673 106.801455 106.801455 0 0 1-28.254353 0 296.105621 296.105621 0 0 1-53.763998-16.629705 117.134476 117.134476 0 0 0-54.409812-8.87994c-18.405693 1.937441-36.569206 8.87994-55.943619 6.619591a36.569206 36.569206 0 0 1-24.783104-14.04645 61.11013 61.11013 0 0 1-10.494474-26.559092c-1.856715-9.202846-2.825435-18.567146-5.16651-27.527812a48.436034 48.436034 0 0 0-12.593369-23.733657l-2.421802-2.421802h8.63776a248.396128 248.396128 0 0 0 91.867011 8.072673h0.645814v0.48436a24.218017 24.218017 0 0 0 15.25735 10.655928 44.641878 44.641878 0 0 0 19.293687-0.968721 42.13935 42.13935 0 0 0 28.57726-24.944558v-0.645813h0.645814l5.247237 2.018168a196.973205 196.973205 0 0 0 169.768299 49.324028z m0 0a197.699746 197.699746 0 0 1-170.171933-47.870947l-5.327963-2.018168h0.96872a43.753884 43.753884 0 0 1-29.142347 26.074731 45.610599 45.610599 0 0 1-20.100954 1.049448 25.509645 25.509645 0 0 1-16.387525-11.786102l0.968721 0.48436a250.252843 250.252843 0 0 1-92.755005-8.072672h0.403633-4.843603l0.887994-2.502528a51.261469 51.261469 0 0 1 13.642816 26.236185c2.421802 9.202846 3.551976 18.567146 5.327964 27.689266a58.526874 58.526874 0 0 0 9.767933 25.267464 33.420863 33.420863 0 0 0 22.764936 13.077729c18.244239 2.421802 36.569206-4.278516 55.297806-6.13523a118.345377 118.345377 0 0 1 55.378532 9.364299 287.790769 287.790769 0 0 0 53.279638 16.952612 100.585497 100.585497 0 0 0 27.850719 0 125.368601 125.368601 0 0 0 26.881999-7.426858 210.938928 210.938928 0 0 0 47.628767-29.223074c14.853717-11.463195 28.738714-24.218017 42.946617-36.246299a137.23543 137.23543 0 0 0-25.267465 5.085784z" fill="#6E8245" p-id="5157"></path><path d="M1546.887655 369.253478a193.744136 193.744136 0 0 1-78.304922-43.996064l-5.247237-2.018168a43.027344 43.027344 0 0 1-29.303801 25.671098c-17.598426 4.117063-28.657987 0-35.035398-10.171568a250.252843 250.252843 0 0 1-47.951673 0c28.254353 75.64094 129.970025 59.818502 195.843031 30.514702z" fill="#79910E" p-id="5158"></path><path d="M1766.545069 280.776989c-7.265405-28.496533-33.824497-48.436034-62.159577-56.508706s-58.284694-5.973778-87.669222-3.874883l-26.720545 1.856715-32.29069 2.341075a222.402123 222.402123 0 0 1-81.614717 67.648994l-12.028282-1.533808a95.580441 95.580441 0 0 1 2.260349 18.405693 39.313914 39.313914 0 0 1-2.986889 13.884996l5.247237 2.018168a197.215385 197.215385 0 0 0 169.526119 48.436035 137.23543 137.23543 0 0 1 25.348191-5.166511l7.588312-6.538864a60.787223 60.787223 0 0 1 27.447086-15.499531c8.799213-1.533808 17.759879 0.565087 26.720546 0a29.223074 29.223074 0 0 0 3.713429-0.484361c27.366359-4.68215 44.561151-37.69938 37.618653-64.985012z" fill="#88A215" p-id="5159"></path><path d="M1766.545069 280.776989a77.174748 77.174748 0 0 0-35.681212-44.884058 121.735899 121.735899 0 0 0-55.701439-16.145345 385.227924 385.227924 0 0 0-58.688328 1.372354l-58.688328 4.43997 0.726541-0.403633a223.128663 223.128663 0 0 1-81.776171 68.456261h-0.403634l-12.028282-0.968721 1.614535-1.856714a111.967965 111.967965 0 0 1 2.421802 16.145344 39.475368 39.475368 0 0 1-3.148343 16.710432l-0.887994-2.098895 5.247238 2.018168A195.843031 195.843031 0 0 0 1560.530471 371.433099a193.744136 193.744136 0 0 0 77.416928 1.453081 136.347436 136.347436 0 0 1 25.671098-5.085783h-0.403634a90.979017 90.979017 0 0 1 32.290689-21.392582c12.916276-3.471249 26.236185 2.098895 38.668101-2.421802a48.436034 48.436034 0 0 0 27.689266-25.590371 56.508706 56.508706 0 0 0 4.68215-37.618653z m0 0a56.508706 56.508706 0 0 1-4.19779 38.022287 49.081848 49.081848 0 0 1-27.850719 26.074731c-12.674096 4.68215-26.155458-0.726541-38.587374 2.744709a90.333203 90.333203 0 0 0-31.806329 21.392582 129.970025 129.970025 0 0 0-25.348191 5.247237 188.981259 188.981259 0 0 1-25.994005 3.229069 198.749193 198.749193 0 0 1-144.823742-51.26147h0.565087l-5.247237-2.018168-1.533808-0.565087 0.565087-1.533808a39.071734 39.071734 0 0 0 2.906162-15.418804 100.989131 100.989131 0 0 0-2.179621-16.145344v-1.937442h1.937441l12.028282 1.049448h-0.72654a221.514129 221.514129 0 0 0 81.453263-67.003181v-0.403633h0.322907l58.769055-3.874883a376.913072 376.913072 0 0 1 58.849781-0.968721 122.866073 122.866073 0 0 1 55.862893 17.114066 76.932567 76.932567 0 0 1 35.035398 46.256412z" fill="#77943F" p-id="5160"></path><path d="M1568.68387 325.33814a53.683271 53.683271 0 0 1 0-10.817381 8.072672 8.072672 0 0 1 1.372354-4.68215 9.929387 9.929387 0 0 1 3.551976-2.421801 96.872068 96.872068 0 0 0 27.931446-15.095898 22.684209 22.684209 0 0 0 5.570144-28.57726 51.261469 51.261469 0 0 0-16.145344-11.140287c-5.570144-3.551976-10.655927-9.929387-8.476306-16.145345 0.726541-2.018168 10.494474-14.127177 8.072672-16.145345a2.260348 2.260348 0 0 0-1.291628-0.48436c-5.247237-0.807267-28.012173-0.726541-31.644875 4.197789a222.402123 222.402123 0 0 1-81.614718 67.648995l-11.947555-0.968721a95.580441 95.580441 0 0 1 2.260349 18.405693 39.313914 39.313914 0 0 1-2.986889 13.884996l5.247237 2.018168c16.145345 15.095897 101.150584 76.044573 102.684392 22.68421a142.563394 142.563394 0 0 0-2.583255-22.361303z" fill="#7B940F" p-id="5161"></path><path d="M1766.545069 280.776989a76.771114 76.771114 0 0 0-35.681212-44.803331 119.717731 119.717731 0 0 0-55.701439-16.145345 384.178477 384.178477 0 0 0-58.607601 1.937441L1558.027942 226.124997l1.614535-0.887994A219.818868 219.818868 0 0 1 1477.301219 294.742712h-1.614535l-11.947555-0.96872 3.309796-3.794156A112.129419 112.129419 0 0 1 1469.228547 306.851721a40.363362 40.363362 0 0 1-3.229069 17.436972l-1.856715-4.278516 5.247237 2.018168h0.565087l0.48436 0.403633a196.246665 196.246665 0 0 0 90.091024 47.225134 199.0721 199.0721 0 0 0 51.261469 4.843603 194.955037 194.955037 0 0 0 25.671098-2.744709 133.844907 133.844907 0 0 1 25.913278-4.92433h-0.887994A92.997185 92.997185 0 0 1 1695.263372 346.407815c13.077729-3.229069 26.236185 2.260348 38.668101-2.260348a47.870947 47.870947 0 0 0 27.689266-25.509645 56.508706 56.508706 0 0 0 4.92433-37.860833z m0 0a56.508706 56.508706 0 0 1-4.19779 38.022287 48.839668 48.839668 0 0 1-27.850719 26.074731c-12.674096 4.68215-26.236185-0.645814-38.506647 2.906162a90.091023 90.091023 0 0 0-31.564149 21.634762h-0.484361a139.737958 139.737958 0 0 0-25.186737 5.489418 194.228497 194.228497 0 0 1-78.708556 0 197.296112 197.296112 0 0 1-93.320092-47.548041l0.968721 0.645814-5.247237-1.937441-3.067616-1.210901 1.291628-3.067615a38.42592 38.42592 0 0 0 2.744709-14.772991 100.908404 100.908404 0 0 0-2.260349-15.499531l-0.72654-4.117063h4.117063l12.028281 1.049448h-1.614534a225.227558 225.227558 0 0 0 81.211084-66.27664l0.645814-0.807267h0.96872l58.769055-3.390523a388.053359 388.053359 0 0 1 58.930508-0.48436 126.418049 126.418049 0 0 1 55.943619 17.275519 77.255474 77.255474 0 0 1 35.116125 46.014232z" fill="#789141" p-id="5162"></path><path d="M1488.36078 52.481815a82.906345 82.906345 0 0 0-29.223074-10.413747 116.811569 116.811569 0 0 0-50.050568 8.072672c-40.363362 13.077729-126.175869 35.842665-141.352493 81.856898a46.337139 46.337139 0 0 0-2.179622 17.436972c4.19779 68.859895 65.711553 116.650115 116.246482 154.188042a27.043452 27.043452 0 0 0 14.692264 6.377411 69.828616 69.828616 0 0 0 17.921332-5.247237 92.674278 92.674278 0 0 1 22.199849-0.403634c27.204906 0 47.709494-16.145345 68.779169-31.079788a229.425348 229.425348 0 0 0 26.639818-20.262408c4.117063-3.955609 21.554035-28.81944 25.671098-28.980894h-2.744708a119.798458 119.798458 0 0 0 5.16651-21.231128 149.505892 149.505892 0 0 0-71.766057-150.313159z" fill="#88A215" p-id="5163"></path><path d="M1553.749426 216.43779c-0.403634-9.041393-6.215958-18.002059-19.535867-27.204905-16.145345-10.898108-34.228131-22.280576-52.795277-17.436973S1453.083202 193.834308 1436.937857 201.90698c-19.374414 9.767934-42.62371 4.359243-63.128297-2.663982s-41.816443-15.580258-63.209025-11.786101c-10.736654 1.856715-22.280576 8.87994-23.249296 19.778047-1.453081 15.741711 25.994005 37.69938 36.084845 48.436034a427.286547 427.286547 0 0 0 58.607601 47.870947 27.043452 27.043452 0 0 0 14.692264 6.377411 69.828616 69.828616 0 0 0 17.921333-5.247237 92.674278 92.674278 0 0 1 22.199849-0.403633c27.204906 0 47.709494-16.145345 68.779168-31.079789a229.425348 229.425348 0 0 0 26.639819-20.262408c13.077729-12.351189 22.038395-24.460197 21.473308-36.488479z" fill="#7F990E" p-id="5164"></path><path d="M1488.36078 52.481815a74.107132 74.107132 0 0 0-40.363362-10.655927 155.479669 155.479669 0 0 0-40.928448 9.445026 665.511108 665.511108 0 0 0-79.112189 28.738714 183.491842 183.491842 0 0 0-35.923392 21.554035 66.357367 66.357367 0 0 0-24.218017 33.097957 46.175686 46.175686 0 0 0-0.887994 20.504587 119.637004 119.637004 0 0 0 4.036336 20.504588 137.23543 137.23543 0 0 0 17.679152 37.69938 274.47086 274.47086 0 0 0 57.477427 61.190856 1143.897671 1143.897671 0 0 0 33.25941 25.832552 30.514701 30.514701 0 0 0 17.679153 8.637759c6.458138 0 12.593369-4.68215 20.020227-5.65087a205.853145 205.853145 0 0 1 21.231129 0 66.841727 66.841727 0 0 0 20.343134-3.47125 140.545225 140.545225 0 0 0 36.407752-20.262407c11.301741-8.072672 23.491477-15.580258 33.985951-24.783104a135.701622 135.701622 0 0 0 13.562089-16.145345c2.179622-2.744709 4.43997-5.489417 6.700318-8.072672 1.210901-1.372354 2.341075-2.663982 3.632703-3.95561a11.624648 11.624648 0 0 1 4.68215-3.309795v1.533807H1553.830153v-1.049447a138.527057 138.527057 0 0 0 6.781045-48.436034 152.331327 152.331327 0 0 0-9.929387-48.436034 145.308102 145.308102 0 0 0-62.321031-74.510766z m0 0a146.438276 146.438276 0 0 1 63.531931 74.268586 156.609843 156.609843 0 0 1 10.333021 48.436034 138.042697 138.042697 0 0 1-6.538865 49.324028l-0.72654-0.968721H1561.902825l-4.19779 1.856715a29.303801 29.303801 0 0 0-7.184678 6.781045c-2.260348 2.583255-4.43997 5.327964-6.619591 8.072672a127.87113 127.87113 0 0 1-13.642816 16.145345c-10.655927 9.445027-22.684209 16.791158-33.985951 25.186737a143.935748 143.935748 0 0 1-36.811386 20.827495 69.344255 69.344255 0 0 1-21.069675 3.794156 201.170995 201.170995 0 0 0-20.908221 0c-6.619591 0.807267-12.512642 5.570144-20.343134 5.893051a33.985951 33.985951 0 0 1-19.616594-9.12212c-11.301741-8.072672-22.603483-16.871885-33.340137-25.913278a277.457748 277.457748 0 0 1-57.477427-61.917397 146.196096 146.196096 0 0 1-17.679152-38.506647 122.866073 122.866073 0 0 1-3.874883-20.827495 48.436034 48.436034 0 0 1 1.049447-21.311855 68.536988 68.536988 0 0 1 25.428918-34.147404 183.007482 183.007482 0 0 1 36.327026-21.473308 650.738117 650.738117 0 0 1 79.515822-28.173627 155.560396 155.560396 0 0 1 41.089902-9.202846 74.026405 74.026405 0 0 1 39.798275 10.978834z" fill="#75913A" p-id="5165"></path><path d="M262.525485 443.60279l-0.403633 1.533808c-76.448207 1.775988-146.034643-73.703498-137.23543-150.393886a128.032583 128.032583 0 0 0 2.260348-32.290689c-1.049447-7.184678-3.874883-14.04645-5.247237-21.311855a54.974899 54.974899 0 0 1 11.221015-43.915338A50.615656 50.615656 0 0 1 146.198277 185.761636c16.145345-10.09084 36.246299-10.898108 55.297805-11.382468a347.124911 347.124911 0 0 1 124.722788 18.082786c26.881999 8.960666 16.145345 13.965723 30.030341-7.588312a67.326087 67.326087 0 0 0 0 24.783104A172.190101 172.190101 0 0 0 371.345108 251.715369l34.873945 76.36748c2.260348 4.92433 8.960666 19.45514 14.127176 22.522756a72.654051 72.654051 0 0 0-31.079788 25.186737 79.031462 79.031462 0 0 0-12.916276 44.076791h-6.619591a272.614145 272.614145 0 0 1-58.123241 24.218017 98.163696 98.163696 0 0 1-49.081848-0.48436z" fill="#88A215" p-id="5166"></path><path d="M262.525485 443.60279l-0.403633 1.533808A131.019472 131.019472 0 0 1 193.746317 427.134539a156.125483 156.125483 0 0 1-51.100016-49.808389 139.334325 139.334325 0 0 1-20.827495-68.456261c0.403634-6.054504 0-12.189735 1.130174-18.163513s1.695261-11.786102 1.937442-17.517699a49.324028 49.324028 0 0 0-1.856715-16.791158 155.721849 155.721849 0 0 1-4.359243-17.598426 57.638881 57.638881 0 0 1 34.712491-60.464316 108.65817 108.65817 0 0 1 35.842665-6.942498c11.947555-0.565087 24.218017-0.807267 35.923392-0.484361a330.979566 330.979566 0 0 1 71.20097 9.3643c11.705375 2.906162 23.087843 6.296684 34.551038 10.252294 2.825435 1.049447 5.650871 2.260348 8.072672 3.471249l4.036336 1.937442c1.291628 0.726541 2.583255 0.645814 1.533808 0.887994s0.887994-1.210901 1.453081-2.341075l2.260348-3.874883c1.533808-2.583255 3.148342-5.16651 4.762877-8.072672l-0.403634 0.887994a4.036336 4.036336 0 0 1 1.533808-1.937442l5.812324-3.148342-1.291627 6.458138a80.726723 80.726723 0 0 0 5.247237 42.704437c5.16651 13.884996 11.947555 27.447086 18.082786 41.251355l18.567146 41.170629L410.497569 331.069738a102.926572 102.926572 0 0 0 5.085784 9.84866 25.913278 25.913278 0 0 0 6.215957 8.072672l3.551976 2.421802-3.794156 1.614534a69.344255 69.344255 0 0 0-32.290689 26.801273 78.789282 78.789282 0 0 0-11.624648 40.363361v1.614535h-8.072673 0.645814a308.45681 308.45681 0 0 1-52.149463 21.231128 102.845846 102.845846 0 0 1-55.539986 0.565087z m0 0a101.392765 101.392765 0 0 0 55.297806-2.341075 309.586984 309.586984 0 0 0 51.180742-22.442029h6.700318l-1.614534 1.614535a80.726723 80.726723 0 0 1 11.463195-42.62371A73.622772 73.622772 0 0 1 419.781142 348.50671v4.036336a27.689266 27.689266 0 0 1-8.072672-9.445026c-2.018168-3.309796-3.794156-6.700318-5.489417-10.171568l-9.60648-20.504587-18.97078-41.009176c-6.215958-13.80427-12.997002-27.204906-18.405693-41.574262a86.296867 86.296867 0 0 1-5.731598-45.933506l4.520697 3.229069a2.744709 2.744709 0 0 0 1.291627-1.695261l-0.403633 0.807267c-1.533808 2.502528-3.067615 4.92433-4.520697 7.426858l-2.179621 3.874883c-1.049447 1.372354-1.049447 2.744709-3.95561 4.68215a5.489417 5.489417 0 0 1-4.439969 0 20.504588 20.504588 0 0 1-2.502529-0.968721l-4.117063-1.856714c-2.583255-1.210901-5.247237-2.260348-8.072672-3.229069a349.304532 349.304532 0 0 0-103.895293-18.97078h-35.358305a103.088026 103.088026 0 0 0-33.905224 6.296684 51.74583 51.74583 0 0 0-31.725602 54.167632 130.131478 130.131478 0 0 0 4.117063 17.033338 54.813445 54.813445 0 0 1 1.695261 18.48642c-0.403634 6.135231-1.453081 12.028282-2.260348 17.840606s-0.807267 11.624648-1.291628 17.436972a135.297988 135.297988 0 0 0 19.21296 66.680274 155.96403 155.96403 0 0 0 49.081848 49.969841 130.373658 130.373658 0 0 0 67.326088 19.697321z" fill="#6E8245" p-id="5167"></path><path d="M406.461233 328.082849L371.345108 251.715369a172.190101 172.190101 0 0 1-15.176624-42.462257c0-2.179622-0.645814-4.43997-0.887994-6.700318a18.647873 18.647873 0 0 1-18.002059 9.12212c-50.212022-2.341075-90.091023 32.290689-103.572386 79.758003-16.145345 57.15452 16.952612 99.939684 47.144406 144.662288a20.585314 20.585314 0 0 1 3.632703 10.575201A111.160698 111.160698 0 0 0 311.607333 444.08715a272.614145 272.614145 0 0 0 58.123241-24.218017h6.619591a79.031462 79.031462 0 0 1 13.158456-44.318971 72.654051 72.654051 0 0 1 31.079789-25.186737c-5.16651-3.148342-11.866828-17.356246-14.127177-22.280576z" fill="#7B940D" p-id="5168"></path><path d="M477.904383 522.795706c10.252294 34.308857 20.585314 68.859895 30.676155 103.168752a47.951674 47.951674 0 0 0-13.965723 12.835549c-14.04645 17.114065-26.962726 35.681212-45.126238 48.436034s-43.511704 17.921333-62.159577 6.135231c-8.072672-5.005057-14.04645-12.674096-22.361303-17.114065-15.176624-8.072672-33.74377-3.955609-50.534929 0-46.660046 11.221015-104.2182 15.580258-134.490721-21.715489s-12.351189-96.872068 16.145345-137.235429a365.61133 365.61133 0 0 1 66.03446-72.008238l0.403633-1.533807a98.163696 98.163696 0 0 0 49.081848 0A272.614145 272.614145 0 0 0 369.730574 419.869133h6.619591a87.184861 87.184861 0 0 0 9.767934 40.363362 47.709494 47.709494 0 0 0 24.218017 24.218017 50.050569 50.050569 0 0 0 18.567146 2.663982 104.94474 104.94474 0 0 0 47.225133-11.866828L476.289849 476.37784c-7.426859 14.127177-2.986889 31.241242 1.614534 46.417866z" fill="#88A215" p-id="5169"></path><path d="M477.904383 522.795706l31.241242 103.088026a46.579319 46.579319 0 0 0-14.04645 12.916275l-12.028282 15.257351a188.173992 188.173992 0 0 1-26.478365 28.496533 75.64094 75.64094 0 0 1-34.954671 17.114066 48.436034 48.436034 0 0 1-38.103013-8.072673c-5.327964-3.955609-9.929387-8.557033-15.015171-12.109008a35.842665 35.842665 0 0 0-17.114065-6.458138 109.707617 109.707617 0 0 0-37.537927 5.005057 221.271949 221.271949 0 0 1-77.820561 6.942498 100.504771 100.504771 0 0 1-37.860833-12.028282 75.560213 75.560213 0 0 1-27.85072-28.738713 80.726723 80.726723 0 0 1-9.3643-38.829554 127.548223 127.548223 0 0 1 6.619591-39.071734 220.303228 220.303228 0 0 1 38.506647-68.133355 371.342928 371.342928 0 0 1 54.813446-55.539986l-0.726541 1.130175 0.48436-1.533808 0.565088-2.098895 2.018168 0.645814a100.827678 100.827678 0 0 0 54.490538-1.130174 308.21463 308.21463 0 0 0 51.665103-21.311855h8.072672V419.869133a88.153582 88.153582 0 0 0 6.781045 34.954672 54.894172 54.894172 0 0 0 22.119122 27.366359 60.383589 60.383589 0 0 0 35.277578 3.551976 102.603665 102.603665 0 0 0 34.228131-10.736654L476.289849 476.37784a40.363362 40.363362 0 0 0-3.794156 23.087843 120.121364 120.121364 0 0 0 5.40869 23.330023z m0 0a120.524998 120.524998 0 0 1-5.327964-23.16857A39.879001 39.879001 0 0 1 476.289849 476.37784l-0.565087-1.049448a104.94474 104.94474 0 0 1-34.308858 11.059562 60.867949 60.867949 0 0 1-35.761938-3.390523 57.15452 57.15452 0 0 1-22.92639-27.689266 88.799396 88.799396 0 0 1-7.426858-35.439032l1.049447 0.968721h-6.619591 0.48436a306.761549 306.761549 0 0 1-51.74583 22.442029 104.2182 104.2182 0 0 1-56.508706 2.179622l2.663982-1.533808-0.403634 1.533808v0.645814h-0.565087a376.751618 376.751618 0 0 0-53.118184 55.701439 209.889481 209.889481 0 0 0-36.972839 66.599547c-8.072672 24.218017-9.3643 50.938562 2.421802 72.654051a69.182802 69.182802 0 0 0 25.267464 26.478365 95.33826 95.33826 0 0 0 35.519758 11.543921 224.420291 224.420291 0 0 0 76.044574-5.89305 113.017413 113.017413 0 0 1 38.91028-3.067616 40.363362 40.363362 0 0 1 18.7286 7.346132c5.40869 3.955609 9.929387 8.718486 14.934444 12.512642a44.884058 44.884058 0 0 0 35.681212 8.072672 73.380592 73.380592 0 0 0 34.228131-16.145344A193.744136 193.744136 0 0 0 482.021446 653.976631l12.189735-15.095897A49.485481 49.485481 0 0 1 508.580538 625.641551v0.484361z" fill="#6E8245" p-id="5170"></path><path d="M274.47304 459.505955c-2.018168 55.217079 14.04645 107.124362 72.654051 121.090085 46.498593 11.140288 98.002242-1.049447 142.15976-18.809327l-11.382468-38.991007c-4.601423-15.176624-9.041393-32.290689-1.533808-46.337139l-0.565087-1.049448a104.94474 104.94474 0 0 1-47.225133 11.866829 50.050569 50.050569 0 0 1-18.567146-2.663982 47.709494 47.709494 0 0 1-24.218017-24.218017 87.184861 87.184861 0 0 1-9.767934-40.363362h-6.296684A272.614145 272.614145 0 0 1 311.607333 444.08715a102.765119 102.765119 0 0 1-42.058623 1.533808 19.697321 19.697321 0 0 1 4.92433 13.884997z" fill="#7D960D" p-id="5171"></path><path d="M719.9231 361.665166c-2.018168 27.608539-25.428918 48.436034-35.600485 74.026405-8.557033 21.876942-7.103952 46.175686-11.221015 69.263529a148.294991 148.294991 0 0 1-143.12848 118.183923 53.602544 53.602544 0 0 0-18.324966 1.533808l-2.906162 1.291627-30.837609-103.168752c-4.601423-15.176624-9.041393-32.290689-1.533808-46.337139l-0.565087-1.049448a88.799396 88.799396 0 0 0 32.29069-28.33508 74.672219 74.672219 0 0 0-1.533808-86.539047 54.006178 54.006178 0 0 0-11.624648-10.655928 642.665445 642.665445 0 0 0 88.799396-180.262773h3.632702a55.620712 55.620712 0 0 0 1.937441 12.512642c4.43997 17.759879 17.840606 31.806329 30.756882 44.884058l60.86795 61.998124c19.616594 20.262408 41.089902 44.399698 38.991007 72.654051z" fill="#88A215" p-id="5172"></path><path d="M719.9231 361.665166A96.145528 96.145528 0 0 1 702.324674 404.611783a138.607784 138.607784 0 0 0-20.827494 41.735716 357.215751 357.215751 0 0 0-6.215958 46.175686 136.589616 136.589616 0 0 1-12.109009 45.287691 153.380774 153.380774 0 0 1-63.289751 68.294808 144.823742 144.823742 0 0 1-44.318971 16.145345l-11.866828 1.695261c-3.955609 0-8.072672 0-11.866829 0.645814a48.436034 48.436034 0 0 0-21.957668 2.825435l-2.502529 1.453081-0.96872-2.906162-22.68421-74.268585c-3.713429-12.431915-7.588312-24.218017-11.221014-37.295746a88.799396 88.799396 0 0 1-3.229069-19.778048 40.847722 40.847722 0 0 1 4.359243-20.343134v2.986889l-0.565087-1.130174-1.533808-2.744709 2.825435-1.533808a86.135414 86.135414 0 0 0 28.012173-23.087843 74.672219 74.672219 0 0 0 12.189736-68.698441 56.508706 56.508706 0 0 0-21.069675-28.57726l-2.421802-1.614535 1.695261-2.421801a647.670502 647.670502 0 0 0 89.68739-179.213326v-1.049448H588.257814v2.421802a56.508706 56.508706 0 0 0 8.072672 27.931446 130.454385 130.454385 0 0 0 18.24424 23.41075l41.735716 43.027344c13.80427 14.53081 28.33508 28.254353 41.251356 43.59243a114.551221 114.551221 0 0 1 16.145344 25.106011 59.253415 59.253415 0 0 1 6.215958 28.980894z m0 0a59.737775 59.737775 0 0 0-5.893051-28.980894 119.23337 119.23337 0 0 0-16.145345-24.944557c-12.916276-15.176624-27.608539-28.81944-41.493535-43.188797L613.525279 221.927208a126.095142 126.095142 0 0 1-18.97078-23.41075A59.979955 59.979955 0 0 1 586.078193 169.616291l1.2109 1.210901h-3.632702l1.291627-0.968721a636.449487 636.449487 0 0 1-87.427041 181.635128l-0.726541-4.036336a62.886118 62.886118 0 0 1 23.41075 31.321968 80.726723 80.726723 0 0 1-12.674095 74.752946 92.351372 92.351372 0 0 1-30.272522 24.702377l1.372355-4.278516 0.565087 1.049448 0.807267 1.533807-0.807267 1.453081a49.485481 49.485481 0 0 0-0.807267 35.600485c3.390522 12.270462 7.265405 24.783104 10.898107 37.134293l21.796216 74.591493-3.47125-1.453081a51.019289 51.019289 0 0 1 24.218017-2.986889c3.794156 0 8.072672 0 11.463195-0.403634l11.463195-1.453081a143.612841 143.612841 0 0 0 43.511704-15.418804A151.685513 151.685513 0 0 0 661.961313 537.487969 133.199094 133.199094 0 0 0 674.393228 492.523185a323.391254 323.391254 0 0 1 6.296684-46.498593 137.23543 137.23543 0 0 1 21.069675-41.735716 94.773173 94.773173 0 0 0 18.163513-42.62371z" fill="#6E8245" p-id="5173"></path><path d="M477.904383 522.795706c2.744709 9.3643 5.570144 18.7286 8.072673 28.012173 29.626707-9.60648 60.625769-15.418804 90.494656-24.218017 32.290689-9.445027 77.497654-22.038395 94.12736-54.813445 18.163513-35.842665-17.598426-71.120243-40.363362-95.096081-26.316912-27.527813-60.141409-60.787223-97.760062-71.68533a23.16857 23.16857 0 0 1-6.781045-3.390522c-9.525753 16.145345-19.697321 32.290689-30.676154 48.436034a54.006178 54.006178 0 0 1 11.624648 10.655927 74.672219 74.672219 0 0 1 1.937441 86.377594 88.799396 88.799396 0 0 1-32.290689 28.33508V476.37784c-7.426859 14.127177-2.986889 31.241242 1.614534 46.417866z" fill="#7C940F" p-id="5174"></path><path d="M587.36982 169.616291h-3.632702a642.665445 642.665445 0 0 1-88.799396 180.58568 60.625769 60.625769 0 0 0-67.729721-1.775988 76.690387 76.690387 0 0 0-6.781045 2.502529c-5.16651-3.067615-11.866828-17.598426-14.127176-22.522756L371.345108 251.715369a172.190101 172.190101 0 0 1-15.176624-42.462257 67.326087 67.326087 0 0 1 0-24.783104c12.028282-18.163513 17.921333-43.996064 29.545981-63.370478 15.580258-26.074732 31.402695-52.553097 53.441091-73.380591a117.780289 117.780289 0 0 1 70.474429-33.905224 87.992129 87.992129 0 0 1 11.301742 0 86.296867 86.296867 0 0 1 77.578381 87.023408c-1.130174 23.16857-11.786102 46.094959-11.140288 68.779168z" fill="#88A215" p-id="5175"></path><path d="M587.36982 169.616291h-3.632702a641.131637 641.131637 0 0 1-35.923392 94.36954 625.470653 625.470653 0 0 1-50.777109 87.427041l-1.291628 1.937441-1.937441-1.372354a62.240304 62.240304 0 0 0-32.29069-10.494474 52.795277 52.795277 0 0 0-32.290689 9.12212h-0.48436l-6.458138 2.421801-1.453081 0.565088-1.130174-0.726541a29.545981 29.545981 0 0 1-8.072673-9.687207c-1.937441-3.309796-3.713429-6.700318-5.40869-10.171567l-9.525754-20.585314-18.890053-41.089903c-6.135231-13.80427-12.916276-27.124179-18.405693-41.574262a85.812507 85.812507 0 0 1-5.731597-46.014232V182.532567c9.84866-15.176624 15.095897-33.420863 23.087843-50.696383a245.489966 245.489966 0 0 1 13.965723-24.783104c4.92433-8.072672 9.929387-16.145345 15.257351-23.814383A214.813811 214.813811 0 0 1 443.191892 40.453533a124.157701 124.157701 0 0 1 50.454202-26.559092 81.856898 81.856898 0 0 1 56.508707 5.650871 90.494657 90.494657 0 0 1 40.363361 39.475368 84.601606 84.601606 0 0 1 8.63776 27.124179 82.987072 82.987072 0 0 1-1.210901 28.254353c-3.713429 18.48642-10.736654 36.246299-10.575201 55.217079z m0 0c-0.645814-18.890053 5.893051-37.053566 8.87994-55.378532a79.031462 79.031462 0 0 0-8.718486-53.683271 87.830675 87.830675 0 0 0-39.313915-37.295747 77.416928 77.416928 0 0 0-53.360364-4.439969 121.493719 121.493719 0 0 0-47.951674 25.994005 211.423289 211.423289 0 0 0-36.084845 41.977896c-5.247237 8.072672-10.171567 15.660984-14.934444 23.65293a232.735144 232.735144 0 0 0-13.562089 24.218017c-8.072672 16.791158-12.754822 35.196851-23.249297 51.745829l0.484361-1.2109a80.242363 80.242363 0 0 0 5.247237 42.623709c5.16651 13.80427 11.947555 27.447086 18.002059 41.170629l18.7286 41.251356L410.901203 331.069738a101.554218 101.554218 0 0 0 5.085783 9.767933 27.204906 27.204906 0 0 0 6.054505 8.072673h-2.502529l6.942498-2.583256h-0.72654a57.235247 57.235247 0 0 1 35.761938-9.84866 67.00318 67.00318 0 0 1 34.954672 11.947555l-3.229069 0.565087a660.506051 660.506051 0 0 0 51.98801-86.539047A642.342538 642.342538 0 0 0 583.656391 169.616291z" fill="#6E8245" p-id="5176"></path><path d="M518.671379 187.053263c-16.145345 8.072672-32.855776 16.629705-51.98801 16.145345-14.53081-0.48436-28.415807-6.942498-42.38153-10.171567-24.621651-5.731597-32.855776-0.968721-40.363362 24.702377A20.504588 20.504588 0 0 1 363.272436 232.825315c2.502528 6.377411 5.327964 12.674096 8.072672 18.890054l34.873945 76.36748c2.260348 4.92433 8.960666 19.45514 14.127176 22.522756 2.260348-0.968721 4.520697-1.775988 6.781045-2.502529a60.625769 60.625769 0 0 1 67.729721 1.775988 644.118526 644.118526 0 0 0 81.533991-159.031645c-19.374414-8.395579-34.551038-15.095897-57.719607-3.794156z" fill="#7B940F" p-id="5177"></path><path d="M959.520015 271.009056c30.837608-85.812507 127.144589-134.329268 218.365787-135.943803 12.270462 0 24.218017-0.565087 36.327025-0.96872v5.973777a9.3643 9.3643 0 0 0-4.359243 1.049448c-24.218017 12.351189-26.801272 51.261469-26.559092 76.60966 0 37.134293 18.890053 76.851841 53.521818 90.494657 21.554035 8.072672 48.436034 7.184678 64.581379 22.603483a32.290689 32.290689 0 0 1 2.825435 2.906162c19.21296 22.280576 8.072672 62.159577 31.079788 80.726723 21.231128 17.517699 52.553097 2.260348 80.08091 0.887994 37.94156-1.856715 72.088964 24.218017 110.030524 27.285632 53.602544 3.874883 96.872068-38.506647 137.800517-74.187858l7.588312-6.538865a60.787223 60.787223 0 0 1 27.447086-15.499531c8.799213-1.533808 17.759879 0.565087 26.720545 0a29.223074 29.223074 0 0 0 3.71343-0.48436 348.900899 348.900899 0 0 1 52.795277 80.726723 364.561883 364.561883 0 0 1 27.769993 104.944741c18.97078 146.034643-30.353248 332.35192-165.08615 410.414661a601.736996 601.736996 0 0 1-79.435096 36.084846c-91.624831 36.327026-185.671464 35.196851-282.139898 19.535867-145.308102-23.65293-281.736265-120.444271-353.260142-250.252843A515.924489 515.924489 0 0 0 968.722861 643.482157a625.470653 625.470653 0 0 0 11.221015-235.399125A543.048668 543.048668 0 0 0 952.577517 290.706376a139.576505 139.576505 0 0 0 6.942498-19.69732z" fill="#ED8902" p-id="5178"></path><path d="M1189.187543 150.645511c-12.754822 35.600485-38.748827 73.864952-36.649932 113.017413 2.583255 47.54804 43.511704 62.240304 80.726723 76.448207 29.303801 11.059561 53.521818 24.218017 70.312976 51.180742 22.442029 36.407752 41.332082 52.553097 82.825618 65.630827 38.103013 11.947555 81.29181 31.402695 121.090086 36.327025 32.290689 3.955609 67.406814-10.171567 99.939683-13.239183 42.058623-4.036336 79.838729-11.301741 117.861016-30.918335a441.898084 441.898084 0 0 0 51.826557-32.290689 364.561883 364.561883 0 0 0-48.436034-70.555156 29.223074 29.223074 0 0 1-3.71343 0.48436c-8.960666 0.726541-17.921333-1.372354-26.720545 0a60.787223 60.787223 0 0 0-27.447086 15.499531l-7.588312 6.538865c-40.605542 35.439032-83.794339 77.820561-137.47761 73.945678-37.94156-2.663982-72.088964-29.142347-110.030524-27.285632-27.527813 1.372354-58.849781 16.629705-80.08091-0.887994-22.764936-18.647873-11.866828-58.526874-31.079788-80.726724a32.290689 32.290689 0 0 0-2.825435-2.906162c-16.145345-15.418804-43.269524-14.207903-64.581379-22.603482-34.631764-13.642816-53.198911-53.360364-53.521818-90.494657 0-25.348191 2.341075-64.581379 26.559092-76.609661a9.3643 9.3643 0 0 1 4.359243-1.049447v-5.973778c-8.072672 0-17.194792 0.48436-25.832551 0.726541a18.567146 18.567146 0 0 1 0.48436 15.741711zM996.735035 210.625466a175.015536 175.015536 0 0 0-37.21502 60.38359A139.576505 139.576505 0 0 1 952.577517 290.706376a543.048668 543.048668 0 0 1 26.962725 117.780289A625.470653 625.470653 0 0 1 968.722861 643.482157a515.924489 515.924489 0 0 1-38.829553 103.572386 500.505685 500.505685 0 0 0 150.716792 166.135597c77.982015-228.618081 23.249296-489.203944-83.875065-702.564674z" fill="#E08100" p-id="5179"></path><path d="M1009.086223 643.482157a515.924489 515.924489 0 0 1-38.829554 103.572386 410.576115 410.576115 0 0 1-51.98801-184.137656c-3.229069-95.33826 31.241242-186.720911 75.075853-272.614145a543.048668 543.048668 0 0 1 26.962726 117.78029A625.470653 625.470653 0 0 1 1009.086223 643.482157z" fill="#FC9202" p-id="5180"></path><path d="M508.580538 625.964458l2.906162-1.291627a53.602544 53.602544 0 0 1 18.324966-1.533808 148.294991 148.294991 0 0 0 143.289934-118.183923c4.117063-23.087843 2.663982-47.386587 11.221015-69.263529 10.171567-25.671098 33.582317-46.417866 35.600485-74.026405s-19.374414-52.391643-39.233188-72.654051l-60.867949-61.998124c-12.916276-13.077729-26.316912-27.124179-30.756882-44.884058a55.620712 55.620712 0 0 1-1.695261-12.512642c-0.645814-22.603483 10.09084-45.529872 11.301741-68.698442A86.296867 86.296867 0 0 0 521.09318 13.813715a87.992129 87.992129 0 0 0-11.301741 0V0.090172a474.108047 474.108047 0 0 1 163.633068 25.751825 747.125825 747.125825 0 0 1 227.245727 129.162757A318.386197 318.386197 0 0 1 992.940879 290.706376c-43.834611 85.893234-78.304922 177.598791-75.075853 272.614145a410.576115 410.576115 0 0 0 51.98801 184.137656 545.793377 545.793377 0 0 1-43.511704 72.008237c-78.950735 110.757065-201.090268 195.681578-341.151133 203.592797A623.936845 623.936845 0 0 1 234.109678 937.569611C164.684696 896.156802 87.187042 833.270684 49.810569 760.69736-44.720424 577.205517 2.585436 352.462319 130.375839 195.045209l2.744709 2.179621a54.974899 54.974899 0 0 0-11.221015 43.915338c1.372354 7.265405 4.19779 14.127177 5.247237 21.311855a128.032583 128.032583 0 0 1-2.260348 32.290689c-8.799213 76.690387 60.787223 152.169874 137.23543 150.393886a365.61133 365.61133 0 0 0-66.03446 72.008237c-28.33508 40.363362-47.144406 98.809509-16.145345 137.23543s87.992129 33.01723 134.894355 21.796215c16.791158-4.036336 35.358305-8.072672 50.534929 0 8.072672 4.43997 14.369357 12.109009 22.361302 17.114066 18.647873 11.786102 44.076791 6.458138 62.159577-6.135231s31.079789-31.160515 45.126239-48.436034A47.951674 47.951674 0 0 1 508.580538 625.964458z" fill="#FC9202" p-id="5181"></path><path d="M779.015061 324.692327a105.429101 105.429101 0 0 0-33.663043-68.214082c-29.223074-27.447086-65.307919-45.206965-85.00524-81.776171-17.598426-32.694323-17.114065-74.187859-42.62371-102.603665a104.056746 104.056746 0 0 0-38.022287-26.236185 81.937624 81.937624 0 0 1 18.97078 54.974899c-1.210901 23.16857-11.947555 46.094959-11.301741 68.698441a55.620712 55.620712 0 0 0 1.937441 12.593369c4.43997 17.759879 17.840606 31.806329 30.756882 44.884058l60.86795 61.998124c19.858774 20.262408 41.332082 44.399698 39.233187 72.654051S694.252002 410.020473 684.322615 436.014478c-8.557033 21.876942-7.103952 46.175686-11.221015 69.263529a148.294991 148.294991 0 0 1-143.12848 117.861016 53.602544 53.602544 0 0 0-18.324966 1.533808l-2.906162 1.291627a47.951674 47.951674 0 0 0-13.965724 12.835549c-14.04645 17.114065-26.962726 35.681212-45.126238 48.436034s-43.511704 17.921333-62.159577 6.135231c-8.072672-5.005057-14.04645-12.674096-22.361302-17.114065-15.176624-8.072672-33.74377-3.955609-50.534929 0-46.660046 11.221015-104.2182 15.580258-134.490721-21.715489s-12.351189-96.872068 16.145344-137.235429a365.61133 365.61133 0 0 1 66.03446-72.008238C185.673644 446.912586 116.087209 371.433099 124.886422 294.742712a128.032583 128.032583 0 0 0 2.260348-32.290689c-0.968721-6.700318-3.471249-13.158456-4.92433-19.858774-14.77299 42.86589-30.514701 88.799396-18.97078 133.602727 8.072672 32.290689 32.290689 58.769055 39.959728 91.786285 11.463195 50.131295-9.687207 108.819623-12.109009 159.677459-1.937441 39.071734-0.48436 90.898291 41.009176 109.38471 35.277578 15.660984 72.654051 3.067615 108.738896-2.179622a219.334507 219.334507 0 0 1 101.634945 9.60648c33.905224 10.575201 68.456261 19.939501 102.038579 3.148343 25.751825-12.916276 44.722605-37.134293 65.873006-55.862893a251.221563 251.221563 0 0 1 75.075853-42.785164c35.519758-14.611537 56.508706-30.999062 73.461318-66.841726 30.756882-65.307919 32.290689-138.849964 72.008237-201.170995 2.825435-4.520697 5.973778-9.041393 9.202847-13.723543a20.181681 20.181681 0 0 1-2.502529-11.140288c0.48436-10.736654 1.130174-21.150402 1.372354-31.402695z" fill="#EB8702" p-id="5182"></path><path d="M356.329938 184.470008c-14.28863 21.554035-3.148342 16.145345-30.030341 7.588312A347.124911 347.124911 0 0 0 201.818989 174.056261c-19.051507 0.48436-39.152461 1.291628-55.297805 11.382468a50.615656 50.615656 0 0 0-13.07773 11.786101l-2.744708-2.179621c72.654051-89.848843 171.947921-157.740018 285.772601-183.491843A466.196828 466.196828 0 0 1 509.710712 0.090172v13.723543a117.780289 117.780289 0 0 0-70.474429 33.905224c-21.957669 20.827495-37.780107 47.30586-53.360365 73.461318-11.624648 19.293687-17.517699 45.126238-29.54598 63.289751z" fill="#FC9202" p-id="5183"></path><path d="M1398.996297 339.14241c6.377411 9.84866 17.436972 14.28863 35.035398 10.171567a43.027344 43.027344 0 0 0 29.303801-26.316912 39.313914 39.313914 0 0 0 2.986889-13.884996 48.436034 48.436034 0 0 0-0.565087-8.072672 148.537171 148.537171 0 0 0-67.568268 36.165572 14.04645 14.04645 0 0 0 0.807267 1.937441z" fill="#784530" p-id="5184"></path><path d="M1484.808804 165.660681c0-1.775988 0-3.471249 0.484361-5.247237 0.565087-13.400636-5.731597-28.33508-18.405693-32.855776a31.806329 31.806329 0 0 0-34.066678 12.351189 47.870947 47.870947 0 0 0-4.278516 6.538864 117.376656 117.376656 0 0 0-10.252294 29.061621c-5.650871 22.038395-28.496533 89.768116-26.720545 134.167814a60.706496 60.706496 0 0 0 6.619591 27.527813 148.537171 148.537171 0 0 1 67.568268-36.165572c0-3.390522-1.049447-6.781045-1.695262-10.090841l-1.210901-6.135231a167.588678 167.588678 0 0 1 11.221015-85.812507 158.950918 158.950918 0 0 0 10.736654-33.340137zM496.390803 226.124997a31.725602 31.725602 0 0 0-34.066677 12.431916 56.508706 56.508706 0 0 0-4.359243 6.458138 120.121364 120.121364 0 0 0-10.252294 29.142347c-5.570144 21.957669-28.496533 89.768116-26.639819 134.167814a58.446148 58.446148 0 0 0 7.346132 29.06162c6.458138 9.84866 17.436972 14.28863 35.035398 10.171568a42.704437 42.704437 0 0 0 28.980893-25.832552 37.618653 37.618653 0 0 0 2.986889-13.884996 84.520879 84.520879 0 0 0-2.260348-18.48642c-0.403634-2.018168-0.807267-4.036336-1.130174-6.054504a166.619957 166.619957 0 0 1 11.221014-85.812507 160.242546 160.242546 0 0 0 10.655928-33.340137c0-1.775988 0-3.471249 0.48436-5.247237A32.855776 32.855776 0 0 0 496.390803 226.124997z" fill="#88533C" p-id="5185"></path><path d="M785.634653 377.971964a209.082214 209.082214 0 0 1-5.973778 172.432281c-5.731597 11.301741 11.221015 21.231128 16.952612 9.929387a227.89154 227.89154 0 0 0 8.072673-187.608905c-4.762877-11.543921-24.218017-6.538865-18.97078 5.247237zM781.840497 328.163576a9.84866 9.84866 0 0 0 0-19.697321 9.84866 9.84866 0 0 0 0 19.697321z" fill="#FFFFFF" p-id="5186"></path><path d="M1415.787456 553.956221a165.651236 165.651236 0 0 0 145.792462-16.145345c3.551976-2.260348 0-8.072672-3.309795-5.65087a159.193099 159.193099 0 0 1-140.706679 15.25735c-3.955609-1.453081-5.650871 4.843603-1.775988 6.377412z" p-id="5187"></path><path d="M1626.161297 513.673586l-5.973778-5.570144a7.265405 7.265405 0 0 0-3.148342-2.018168 6.861771 6.861771 0 0 0-3.794156-0.807267 6.700318 6.700318 0 0 0-3.794156 0.807267 7.265405 7.265405 0 0 0-3.148342 2.018168l-1.614534 2.018168a9.84866 9.84866 0 0 0-1.291628 5.005057v2.583255a9.283573 9.283573 0 0 0 2.583255 4.359243l5.973778 5.489417a6.619591 6.619591 0 0 0 3.148342 2.018169 6.942498 6.942498 0 0 0 3.794156 0.887994 6.781045 6.781045 0 0 0 3.794156-0.887994 6.619591 6.619591 0 0 0 3.148342-2.018169l1.533808-1.937441a9.202846 9.202846 0 0 0 1.372354-5.005057v-2.583255a9.283573 9.283573 0 0 0-2.583255-4.359243z" fill="#FFFFFF" p-id="5188"></path><path d="M1378.410983 217.245058a569.688487 569.688487 0 0 1-31.887056-62.563211c-2.341075-4.92433-9.929387-1.372354-8.637759 3.632703a222.159943 222.159943 0 0 0 30.595428 64.581378c4.036336 6.215958 13.884996 0.48436 9.929387-5.731597zM1477.704853 219.263226q7.507585-5.570144 14.53081-11.866829a111.564332 111.564332 0 0 0 12.593369-14.28863 116.892295 116.892295 0 0 0 17.921332-32.290689c2.018168-5.570144-6.458138-8.87994-9.3643-3.955609a283.835159 283.835159 0 0 1-41.009175 55.782165c-3.390522 3.471249 1.130174 10.010114 5.327964 6.942499zM1583.21468 276.417746a95.33826 95.33826 0 0 1 35.681212-3.955609 226.034826 226.034826 0 0 1 34.873944 7.588312c3.390522 0.807267 6.861771-3.794156 3.71343-6.377412a65.388646 65.388646 0 0 0-37.376473-12.189735 91.947738 91.947738 0 0 0-39.233188 6.458138c-5.16651 1.937441-3.148342 10.252294 2.341075 8.072672zM1549.067276 305.802273c18.567146 24.218017 44.318971 45.691325 74.187859 52.956731a4.92433 4.92433 0 0 0 3.794156-9.041393l-18.97078-11.059561c-6.296684-3.794156-12.512642-7.669039-18.48642-11.947555a165.57051 165.57051 0 0 1-31.564149-29.949615 6.538865 6.538865 0 0 0-8.960666 0 6.619591 6.619591 0 0 0 0 9.041393zM1399.480658 361.907346a76.448207 76.448207 0 0 0-19.051507 15.660984 55.136352 55.136352 0 0 0-7.103952 10.575201 26.236185 26.236185 0 0 0-3.632702 12.997003 4.036336 4.036336 0 0 0 6.781044 2.825435 44.157518 44.157518 0 0 0 3.632703-4.117063c1.291628-1.614534 2.502528-3.229069 3.713429-5.005057s1.130174-1.533808 1.695261-2.341075-0.645814 0.807267 0 0l0.968721-1.210901 3.551976-4.197789a72.654051 72.654051 0 0 1 8.072672-8.072673l2.179622-1.856714c0.565087-0.48436 0.403634 0 0 0l1.291627-0.968721a50.454202 50.454202 0 0 1 4.843604-3.229069 6.458138 6.458138 0 0 0-6.538865-11.140288zM1470.197267 377.164697a501.797313 501.797313 0 0 0 45.529872 41.332082 6.054504 6.054504 0 0 0 8.072673-1.614534 6.215958 6.215958 0 0 0-0.484361-8.072673 486.701415 486.701415 0 0 0-42.785163-41.816442 7.346132 7.346132 0 0 0-10.171567 0 7.426859 7.426859 0 0 0 0 10.171567zM1333.284744 296.841607a189.304166 189.304166 0 0 1-25.509644-20.100954 184.78347 184.78347 0 0 1-22.199849-24.218017 6.781045 6.781045 0 0 0-8.87994-2.341075 6.619591 6.619591 0 0 0-2.260348 8.879939 141.594673 141.594673 0 0 0 22.361302 28.496534 136.266709 136.266709 0 0 0 29.384528 21.392582 7.184678 7.184678 0 0 0 9.687207-2.502529 7.184678 7.184678 0 0 0-2.502529-9.687207zM433.101052 243.319789a112.129419 112.129419 0 0 1-5.973778-55.297805 137.96197 137.96197 0 0 1 7.103952-26.639819c3.229069-8.799213 8.072672-16.710432 11.624648-25.428918 1.614534-4.19779-3.955609-6.135231-6.700318-3.955609a62.966844 62.966844 0 0 0-16.145345 24.218017 110.030524 110.030524 0 0 0-8.072672 29.788161 123.511887 123.511887 0 0 0 6.215958 60.545042c2.906162 8.072672 15.660984 4.43997 12.674095-3.471249zM531.426201 215.22689A152.089147 152.089147 0 0 0 545.553377 145.398274c0-3.955609-6.135231-5.327964-7.265405-1.049448-2.744709 11.221015-4.762877 22.522756-7.507585 33.743771a220.222501 220.222501 0 0 1-10.736654 32.290689 6.215958 6.215958 0 1 0 11.382468 4.843604zM556.209305 363.360427a96.872068 96.872068 0 0 1 39.879001-14.853717 98.970963 98.970963 0 0 1 20.746768-0.48436 131.100199 131.100199 0 0 0 21.634762 1.775988c2.502528 0 4.843603-3.632703 2.341075-5.570144a38.748827 38.748827 0 0 0-21.231128-6.781045 109.707617 109.707617 0 0 0-24.218017 0.807267 104.94474 104.94474 0 0 0-44.076791 16.791159c-5.16651 3.390522 0 11.705375 4.843603 8.072672zM536.592711 497.286061a184.379836 184.379836 0 0 0 38.668101 61.755944c4.68215 4.68215 11.059561-2.179622 7.103951-7.103952-7.184678-8.960666-14.450083-17.921333-20.746768-27.608539a206.983319 206.983319 0 0 1-16.145344-30.595429c-2.098895-4.762877-10.413747-1.291628-8.072673 3.551976zM298.691057 488.809755a113.986133 113.986133 0 0 0-45.933505 25.428918 82.179804 82.179804 0 0 0-28.173627 44.157518 4.43997 4.43997 0 0 0 8.072672 3.390522c4.117063-6.861771 7.669039-14.04645 11.947556-20.827494a104.137473 104.137473 0 0 1 15.338077-18.809327 102.684392 102.684392 0 0 1 41.170629-24.621651 4.520697 4.520697 0 0 0-2.421802-8.718486zM408.640855 560.172179c1.533808 14.04645 2.421802 28.173626 2.583255 42.38153s-0.887994 28.33508 0 42.462256c0 5.489417 8.960666 7.346132 10.09084 1.372354a191.725968 191.725968 0 0 0 2.098895-43.027343c-0.48436-14.450083-1.695261-28.81944-3.471249-43.188797a5.893051 5.893051 0 0 0-5.570144-5.570144 5.650871 5.650871 0 0 0-5.570144 5.570144zM296.349982 261.160395a322.906894 322.906894 0 0 0-45.772052-32.290689 142.8863 142.8863 0 0 0-51.422923-21.311855c-5.40869-0.645814-6.458138 7.103952-2.583255 9.60648a181.312221 181.312221 0 0 0 23.16857 11.382468c8.072672 3.632703 16.145345 7.588312 24.218017 11.947555a301.029952 301.029952 0 0 1 43.834611 29.384527c6.054504 4.843603 14.853717-3.551976 8.718486-8.718486zM273.342866 377.245424c-18.244239-4.117063-35.439032 2.018168-53.037457 5.89305a49.404755 49.404755 0 0 1-39.394641-5.327963c-6.700318-4.68215-12.754822 5.16651-8.072673 10.655927 10.817381 12.997002 28.657987 13.481363 43.996065 10.978834 17.517699-2.906162 34.873945-12.431915 52.95673-8.960666 8.637759 1.695261 12.351189-11.221015 3.71343-13.239182z" fill="#8DA60F" p-id="5189"></path></svg>