<?xml version="1.0" standalone="no"?><!DOCTYPE svg PUBLIC "-//W3C//DTD SVG 1.1//EN" "http://www.w3.org/Graphics/SVG/1.1/DTD/svg11.dtd"><svg t="1724759945486" class="icon" viewBox="0 0 1024 1024" version="1.1" xmlns="http://www.w3.org/2000/svg" p-id="15348" xmlns:xlink="http://www.w3.org/1999/xlink" width="200" height="200"><path d="M841.143 749.714H182.857c-10.971 0-18.286-7.314-18.286-18.285s7.315-18.286 18.286-18.286h658.286c10.971 0 18.286 7.314 18.286 18.286s-7.315 18.285-18.286 18.285z m0-219.428H182.857c-10.971 0-18.286-7.315-18.286-18.286s7.315-18.286 18.286-18.286h658.286c10.971 0 18.286 7.315 18.286 18.286s-7.315 18.286-18.286 18.286z m0-219.429H182.857c-10.971 0-18.286-7.314-18.286-18.286s7.315-18.285 18.286-18.285h658.286c10.971 0 18.286 7.314 18.286 18.285s-7.315 18.286-18.286 18.286z" fill="#999999" p-id="15349"></path></svg>