<?xml version="1.0" standalone="no"?><!DOCTYPE svg PUBLIC "-//W3C//DTD SVG 1.1//EN" "http://www.w3.org/Graphics/SVG/1.1/DTD/svg11.dtd"><svg t="1736500039531" class="icon" viewBox="0 0 1024 1024" version="1.1" xmlns="http://www.w3.org/2000/svg" p-id="34279" xmlns:xlink="http://www.w3.org/1999/xlink" width="200" height="200"><path d="M0 0m512 0l0 0q512 0 512 512l0 0q0 512-512 512l0 0q-512 0-512-512l0 0q0-512 512-512Z" fill="#E84747" p-id="34280"></path><path d="M810.709333 482.730667c0-12.117333 0.554667-23.381333-0.341333-34.56-0.256-3.157333-4.266667-7.936-7.253333-8.533334-6.101333-1.365333-12.757333-0.426667-19.370667-0.426666v16.597333c0 14.890667 12.074667 26.922667 26.965333 26.922667z m-83.285333 0.810666v-26.965333a17.578667 17.578667 0 0 0-17.536-17.578667 17.578667 17.578667 0 0 1-17.578667-17.536v-10.453333c0-15.488 12.544-27.989333 27.989334-27.989333h7.082666l0.938667-18.645334c17.194667 0 35.968-0.170667 52.906667 0.213334 1.365333 0.042667 2.133333 1.152 2.048 3.669333-0.085333 3.84 0.170667 9.685333 0.170666 14.762667 7.125333 0 13.013333-0.128 18.901334 0 38.314667 1.194667 62.122667 25.429333 62.634666 63.872 0.170667 11.861333 0.042667 23.765333 0.042667 35.328 9.216 0.512 17.792 0.768 25.898667 3.114666 23.296 6.826667 37.077333 25.6 37.589333 49.834667a1911.466667 1911.466667 0 0 1 0 77.781333c-0.341333 19.968-12.8 36.522667-31.530667 42.837334-17.194667 5.802667-34.56 5.546667-51.2-2.005334a43.434667 43.434667 0 0 1-25.685333-42.24h52.778667c0-20.053333 0.512-38.954667-0.170667-57.728-0.341333-9.045333-7.509333-13.610667-15.658667-13.781333-24.064-0.512-48.085333-0.170667-73.301333-0.170667v91.050667a27.733333 27.733333 0 1 1-55.424 0v-36.053333c0-30.336-24.576-54.912-54.912-54.912 0-18.176-0.170667-36.693333 0.341333-53.845334 0.042667-1.408 0.938667-2.304 3.541334-2.389333 15.146667-0.341333 34.176-0.170667 50.133333-0.170667zM210.432 364.970667h55.594667v10.581333c0 77.141333 0 154.282667-0.085334 231.424 0 5.973333-0.512 12.032-1.877333 17.792-5.674667 24.661333-25.258667 37.546667-51.370667 34.389333-22.528-2.773333-37.632-20.693333-37.845333-46.506666h35.584V364.928zM520.106667 437.845333c-1.962667 4.437333-3.157333 7.68-4.693334 10.666667-12.629333 25.6-25.386667 51.114667-37.973333 76.672-5.589333 11.306667-3.968 13.824 8.789333 14.08 5.632 0.042667 11.264 0.042667 16.853334 0.128 0.64 0 1.28 0.341333 3.328 0.853333-7.338667 14.634667-14.421333 29.098667-22.016 43.264-0.853333 1.578667-4.522667 2.218667-6.912 2.218667-16.213333 0.170667-32.426667 0.426667-48.554667 0-19.712-0.597333-27.690667-12.330667-20.053333-30.72 8.362667-20.138667 18.133333-39.68 28.117333-61.269333-8.832 0-16.384 0.085333-23.893333 0-22.784-0.341333-31.445333-12.074667-22.186667-32.725334 13.866667-30.805333 29.098667-61.013333 43.946667-91.392 1.024-2.090667 3.626667-4.693333 5.546666-4.778666 16.682667-0.341333 33.408-0.213333 52.053334-0.213334-6.826667 13.781333-12.714667 25.898667-18.645334 37.930667-5.461333 11.008-11.178667 21.845333-16.213333 33.024a8.277333 8.277333 0 0 0-0.597333 1.792c-0.682667 3.498667 2.688 6.4 6.058666 5.461333 1.834667-0.512 2.56-4.906667 4.565334-4.992h52.48zM132.778667 634.496c-10.496-20.608-20.266667-39.68-29.909334-58.837333-0.682667-1.28-0.469333-3.157333-0.298666-4.693334 2.901333-20.949333 6.272-41.813333 8.661333-62.848 2.304-20.778667 3.498667-41.685333 5.546667-62.506666 0.256-2.688 2.602667-7.338667 4.096-7.381334 17.706667-0.512 35.413333-0.341333 54.016-0.341333-1.408 18.261333-2.304 35.114667-4.053334 51.882667-2.986667 28.714667-5.376 57.514667-10.154666 85.930666-3.584 20.992-12.8 40.362667-27.904 58.794667M341.76 634.282667c-13.824-17.066667-26.88-49.493333-29.653333-68.778667-6.656-46.506667-6.869333-78.933333-12.373334-127.573333 19.456 0 36.437333-0.213333 53.418667 0.298666 1.493333 0.085333 3.84 4.821333 4.096 7.509334 2.816 33.706667 5.290667 67.498667 7.978667 101.290666 0.341333 4.266667 1.194667 13.482667 3.242666 17.024 4.522667 7.68 0.213333 15.786667-3.925333 24.149334-7.765333 14.122667-14.933333 30.08-22.784 46.08M399.829333 597.930667c1.066667 0 6.229333 1.706667 7.253334 2.005333a35.712 35.712 0 0 0 8.405333 2.005333c25.173333 0.170667 42.666667 0.170667 69.546667 0.170667-10.624 20.608-19.413333 37.888-28.458667 55.04-0.725333 1.28-3.328 2.218667-5.034667 2.218667-22.442667 0.042667-44.928 0.042667-67.370666-0.341334-4.138667-0.042667-8.234667-1.834667-13.994667-3.2l29.653333-57.898666" fill="#FFFFFF" p-id="34281"></path><path d="M873.514667 438.186667c0-11.434667-0.853333-21.376 0.170666-31.146667a27.349333 27.349333 0 0 1 29.44-24.746667c14.805333 1.28 26.026667 13.952 25.6 28.885334-0.469333 14.933333-11.989333 26.453333-27.434666 26.965333-8.832 0.298667-17.706667 0.042667-27.776 0.042667M644.949333 658.858667h-131.84a19.370667 19.370667 0 0 1-17.194666-28.245334l2.005333-3.925333c7.68-14.933333 23.04-24.32 39.765333-24.32a27.306667 27.306667 0 0 0 27.306667-27.306667v-118.698666a18.474667 18.474667 0 0 0-18.474667-18.474667 18.474667 18.474667 0 0 1-18.474666-18.517333V410.88c0-14.933333 12.074667-27.008 26.965333-27.008h72.064c14.890667 0 26.965333 12.117333 26.965333 27.008v9.386667a17.621333 17.621333 0 0 1-17.621333 17.621333 17.621333 17.621333 0 0 0-17.664 17.621333v119.125334c0 15.104 12.245333 27.306667 27.306667 27.306666a27.306667 27.306667 0 0 1 27.306666 27.306667v1.152a28.458667 28.458667 0 0 1-28.416 28.458667z" fill="#FFFFFF" p-id="34282"></path></svg>